<svg id="escena" xmlns="http://www.w3.org/2000/svg" viewBox="0 0 800 400"><defs><style>.cls-1{fill:#fffc8a;}.cls-2{fill:#000d20;}.cls-3{fill:#ffcf12;}.cls-4{fill:#ceeaf7;}.cls-11,.cls-5{fill:#fff;}.cls-5{opacity:0.4;}.cls-6{fill:#231463;}.cls-7{fill:#ab99db;}.cls-8{fill:#b5a4e0;}.cls-9{fill:#c5b7e8;}.cls-10{fill:#d5caf0;}.cls-12{fill:#574494;}</style></defs><title>Artboard 1</title><polygon id="luz" class="cls-1" points="405.77 136.52 505.87 363 305.67 363 405.77 136.52"/><path id="vaca" class="cls-2" d="M442.51,325.57s.31-.4-1.12-1.31-3.19-3.52-3.23-4.49c0,0,2.55-.4,2.55-1.48a3.69,3.69,0,0,0-3.06-.37c-1.56.6-1.8-.57-1.8-.57a3.83,3.83,0,0,1,2.51-.4,3.11,3.11,0,0,0-2.63-.95c-2,.07-2.16.08-2.8.35s-3,.2-2.89,1a1.09,1.09,0,0,1-.78,1.21c-.41.2-6.9,2.92-8.67,3.19s-6.76-.64-10.23.5-21.14-.34-21.14-.34-3.26-.13-4.25.74-3.33,1-2.85,9.56.17,9-.48,10.4-1.36,5.16.78,7a16.47,16.47,0,0,1,.82-3.72c.48-.84.31-3,.1-5.33s-.37-10.93.2-12.54c0,0,2.07,7.41,2.38,9.16s-1.87,5.94-1.83,7.41-1.46,9-.78,9.19.78-.64.82-.44-.11,2,1,2.62,2.65.67,3.06.2-.88-1.27-1.33-1.84a6.25,6.25,0,0,1-1.16-4.49,21.68,21.68,0,0,1,1.43-4.39,8.72,8.72,0,0,1,2.11-2.68,3.33,3.33,0,0,0,0,2.35c.51,1,1.39,3.25,1.67,3.89s.68,4,.92,4.19,1.33.8,1.87,1.27,3.33.54,2.85-.2-1.73-1.31-2.41-2.28a20.9,20.9,0,0,1-1.6-5c-.1-.6-.17-2.62-.17-2.62a4.39,4.39,0,0,1,1.53.13c.27.2.61,1.44.85,1.41s.24-1.48.44-1.64,2.07-1,2.68-2a1.47,1.47,0,0,1,1.7-.77,12.88,12.88,0,0,0,7.58.84c4.25-.87,5.78-1.51,6.93-1.48s-.24,4,.17,5-.58,7.14-.14,7.48.09-.23.44-.34.38.67.72,1.17,1.05,1.54,2.17,1.21.85.4,1.33.57,4.21.7,2.92-.54-2.34-1.17-2.41-2.72-.24-4.49.07-4.93a14.56,14.56,0,0,0,.61-3c.1-.5.82-2.65.82-2.65a2.2,2.2,0,0,0,2.11-.84c.85-1.11,3.7-6.91,4.52-8s4.35-6,4.35-6,1.12.07,1.53-.37a10.62,10.62,0,0,0,3.7.4c1.33-.27,1.8.23,2.48.23S442.91,327.51,442.51,325.57ZM416.83,352.7a13.66,13.66,0,0,1-.48-4.22c.09-.66.58-2.89.58-2.89s.12.71.23,1.13.14,3.4.14,4A19.43,19.43,0,0,1,417,353S417.18,353.33,416.83,352.7Z"/><g id="ufo_super"><ellipse class="cls-3" cx="405.24" cy="123.49" rx="43.99" ry="23.12"/><path class="cls-4" d="M379,53.95a24.19,24.19,0,0,0-6.95,16.66c0,15.13,15.09,27.4,33.71,27.4s33.71-12.27,33.71-27.4a24.19,24.19,0,0,0-6.95-16.66Z"/><path class="cls-5" d="M395,53.95H379a24.19,24.19,0,0,0-6.95,16.66,22.56,22.56,0,0,0,.13,2.34C383.26,70.24,391.93,63,395,53.95Z"/><polygon class="cls-6" points="441.6 69.71 415.65 69.71 395.88 69.71 369.94 69.71 367.68 76.14 395.88 76.14 415.65 76.14 443.86 76.14 441.6 69.71"/><path class="cls-7" d="M406.4,114.55H329.59c0,8.42,16.84,15.4,29.37,15.4h93.62c12.53,0,29.37-7,29.37-15.4Z"/><path class="cls-7" d="M405.14,96h76.81c0-8.42-16.84-15.4-29.37-15.4H359c-12.53,0-29.37,7-29.37,15.4Z"/><path class="cls-8" d="M406.22,114.55H350.94c0,8.42,12.12,15.4,21.14,15.4h67.38c9,0,21.14-7,21.14-15.4Z"/><path class="cls-8" d="M405.32,96H460.6c0-8.42-12.12-15.4-21.14-15.4H372.08c-9,0-21.14,7-21.14,15.4Z"/><path class="cls-9" d="M406,114.55H376.1c0,8.42,6.56,15.4,11.44,15.4H424c4.88,0,11.44-7,11.44-15.4Z"/><path class="cls-9" d="M405.52,96h29.91c0-8.42-6.56-15.4-11.44-15.4H387.54c-4.88,0-11.44,7-11.44,15.4Z"/><path class="cls-10" d="M405.85,114.55h-9.74c0,8.42,2.14,15.4,3.72,15.4h11.87c1.59,0,3.72-7,3.72-15.4Z"/><path class="cls-10" d="M405.69,96h9.74c0-8.42-2.14-15.4-3.72-15.4H399.83c-1.59,0-3.72,7-3.72,15.4Z"/><rect class="cls-6" x="328.98" y="99.48" width="153.59" height="11.58"/><circle class="cls-3" cx="335.61" cy="105.27" r="2.65"/><circle class="cls-11" cx="335.16" cy="104.81" r="1.37"/><circle class="cls-3" cx="349.64" cy="105.27" r="2.65"/><circle class="cls-11" cx="349.19" cy="104.81" r="1.37"/><circle class="cls-3" cx="363.68" cy="105.27" r="2.65"/><circle class="cls-11" cx="363.22" cy="104.81" r="1.37"/><circle class="cls-3" cx="377.71" cy="105.27" r="2.65"/><circle class="cls-11" cx="377.25" cy="104.81" r="1.37"/><circle class="cls-3" cx="391.74" cy="105.27" r="2.65"/><circle class="cls-11" cx="391.28" cy="104.81" r="1.37"/><circle class="cls-3" cx="405.77" cy="105.27" r="2.65"/><circle class="cls-11" cx="405.31" cy="104.81" r="1.37"/><circle class="cls-3" cx="419.8" cy="105.27" r="2.65"/><circle class="cls-11" cx="419.34" cy="104.81" r="1.37"/><circle class="cls-3" cx="433.83" cy="105.27" r="2.65"/><circle class="cls-11" cx="433.37" cy="104.81" r="1.37"/><circle class="cls-3" cx="447.86" cy="105.27" r="2.65"/><circle class="cls-11" cx="447.41" cy="104.81" r="1.37"/><circle class="cls-3" cx="461.89" cy="105.27" r="2.65"/><circle class="cls-11" cx="461.44" cy="104.81" r="1.37"/><circle class="cls-3" cx="475.93" cy="105.27" r="2.65"/><circle class="cls-11" cx="475.47" cy="104.81" r="1.37"/><rect class="cls-12" x="323.95" y="93.47" width="163.64" height="6.1" rx="2.29" ry="2.29"/><rect class="cls-12" x="323.95" y="110.97" width="163.64" height="6.1" rx="2.29" ry="2.29"/><rect class="cls-12" x="355.07" y="73.9" width="101.4" height="6.69" rx="2.15" ry="2.15"/><rect class="cls-12" x="355.07" y="129.95" width="101.4" height="6.69" rx="2.15" ry="2.15"/><path class="cls-7" d="M379,54.14h53.53c-6.16-6.53-15.86-10.75-26.77-10.75S385.17,47.6,379,54.14Z"/><path class="cls-12" d="M436,53.91a1.74,1.74,0,0,1-1.74,1.74h-57a1.74,1.74,0,0,1-1.74-1.74h0a1.74,1.74,0,0,1,1.74-1.74h57A1.74,1.74,0,0,1,436,53.91Z"/><circle class="cls-7" cx="359.26" cy="77.24" r="1.35"/><circle class="cls-7" cx="366.41" cy="77.24" r="1.35"/><circle class="cls-7" cx="373.57" cy="77.24" r="1.35"/><circle class="cls-7" cx="380.72" cy="77.24" r="1.35"/><circle class="cls-7" cx="387.88" cy="77.24" r="1.35"/><circle class="cls-7" cx="395.04" cy="77.24" r="1.35"/><circle class="cls-7" cx="402.19" cy="77.24" r="1.35"/><circle class="cls-7" cx="409.35" cy="77.24" r="1.35"/><circle class="cls-7" cx="416.5" cy="77.24" r="1.35"/><circle class="cls-7" cx="423.66" cy="77.24" r="1.35"/><circle class="cls-7" cx="430.81" cy="77.24" r="1.35"/><circle class="cls-7" cx="437.97" cy="77.24" r="1.35"/><circle class="cls-7" cx="445.13" cy="77.24" r="1.35"/><circle class="cls-7" cx="452.28" cy="77.24" r="1.35"/><polygon class="cls-12" points="406.36 30.53 405.77 30.53 405.18 30.53 404.56 40.55 405.77 40.55 406.98 40.55 406.36 30.53"/><circle class="cls-7" cx="405.77" cy="29.63" r="2.17"/><path class="cls-12" d="M411.68,43.88a1.65,1.65,0,0,0,.11-.58,1.6,1.6,0,0,0-1.59-1.62h-8.86a1.6,1.6,0,0,0-1.59,1.62,1.65,1.65,0,0,0,.11.58Z"/><path class="cls-7" d="M409.24,41.67a1,1,0,0,0,.06-.34.94.94,0,0,0-.93-1h-5.21a.94.94,0,0,0-.93,1,1,1,0,0,0,.06.34Z"/><circle class="cls-11" cx="388.36" cy="61.33" r="4.07"/></g></svg>